<?xml version="1.0" encoding="UTF-8" standalone="no"?>
<!-- Created with Inkscape (http://www.inkscape.org/) -->

<svg
   width="50.927059mm"
   height="50.99128mm"
   viewBox="0 0 50.927059 50.99128"
   version="1.1"
   id="svg5"
   xml:space="preserve"
   xmlns="http://www.w3.org/2000/svg"
   xmlns:svg="http://www.w3.org/2000/svg"><defs
     id="defs2" /><g
     id="layer1"
     transform="translate(-110.58235,-176.81494)"><path
       style="fill:#000000;stroke-width:0.21273"
       d="m 132.2065,227.50175 c -2.37378,-0.36951 -5.94819,-1.5639 -8.08079,-2.70019 -9.50414,-5.06402 -14.93128,-15.85901 -13.2351,-26.32561 1.85005,-11.41599 10.81049,-20.07909 22.21462,-21.47745 4.61692,-0.56613 9.44045,0.18747 13.56498,2.11929 7.44665,3.48783 12.71466,10.08617 14.43621,18.08178 0.48598,2.2571 0.54474,7.47905 0.10891,9.67923 -2.70755,13.66857 -15.45705,22.73244 -29.00883,20.62295 z m 6.1162,-3.50805 c 2.81915,-0.32267 6.70101,-1.43423 6.70101,-1.91882 0,-0.10796 -1.0888,-2.13532 -2.41954,-4.50523 -5.20483,-9.26925 -7.83256,-13.88932 -7.99623,-14.05899 -0.13505,-0.13999 -6.27048,3.20673 -9.92462,5.41364 l -0.66283,0.40032 -0.98842,-1.70113 c -0.54363,-0.93562 -1.13085,-2.24794 -1.30493,-2.91626 -0.30136,-1.15703 -0.44854,-4.52944 -0.19766,-4.52944 0.0654,0 0.47221,0.28283 0.9041,0.62849 0.92832,0.74299 2.3729,1.40496 3.53189,1.61848 0.76105,0.14021 0.8176,0.11895 0.66265,-0.2491 -0.57011,-1.35412 -0.73249,-2.01354 -0.74081,-3.00833 -0.005,-0.61426 0.0265,-1.11684 0.0702,-1.11684 0.0438,0 0.49848,0.2317 1.01047,0.51489 2.37806,1.31532 5.73336,1.64526 7.55399,0.7428 1.82162,-0.90295 2.47886,-2.89274 1.57018,-4.75376 -1.00624,-2.06084 -3.57091,-2.6066 -5.41873,-1.1531 -1.25855,0.98997 -1.6259,3.11215 -0.78532,4.53682 0.34558,0.58571 0.37608,0.75054 0.13889,0.75054 -0.70534,0 -2.73875,-0.94342 -3.74107,-1.73571 -0.59414,-0.46963 -1.14438,-0.78988 -1.22276,-0.71166 -0.0784,0.0782 -0.1425,1.13921 -0.1425,2.35774 0,1.88875 -0.0502,2.21562 -0.34036,2.21622 -0.46499,0.001 -1.83341,-1.02119 -2.78974,-2.08384 -0.43453,-0.48284 -0.83526,-0.80475 -0.8905,-0.71536 -0.1411,0.2283 -0.53963,2.72913 -0.60497,3.7963 -0.0541,0.88299 -0.072,0.8595 -2.26713,-2.97822 -1.21694,-2.12754 -2.24602,-3.90814 -2.28685,-3.95689 -0.14855,-0.17739 -0.26631,0.12695 -0.69409,1.79383 -1.99527,7.77477 0.12545,15.52441 5.78171,21.12786 3.96162,3.92462 9.17723,6.15453 14.94117,6.38803 0.35101,0.0142 1.49975,-0.0728 2.55277,-0.19328 z m 11.78285,-4.97188 c 3.57599,-2.93068 5.90893,-6.68976 7.19631,-11.5955 0.45108,-1.71888 0.5351,-2.51789 0.53855,-5.12122 0.004,-2.65823 -0.0732,-3.37863 -0.5554,-5.2119 -2.76708,-10.52097 -12.22109,-17.33351 -22.85559,-16.46968 -3.93691,0.31979 -7.37669,1.51066 -10.65108,3.68747 -1.66979,1.11008 -4.8006,4.27576 -5.8428,5.90786 -0.82953,1.29907 -2.05589,3.67766 -2.05589,3.98751 0,0.21036 1.08635,-0.15496 18.34565,-6.16944 l 9.3046,-3.24244 0.90147,0.40564 c 2.45855,1.1063 5.38119,3.55569 7.08853,5.94071 0.50415,0.70425 0.94793,1.39403 0.98618,1.53284 0.0387,0.14056 -3.18203,2.12531 -7.26964,4.47982 -4.16321,2.39804 -7.31413,4.3415 -7.28128,4.49102 0.11518,0.5241 10.3707,18.52697 10.55491,18.52843 0.10398,8.5e-4 0.82195,-0.51718 1.59548,-1.15112 z m -8.54975,-25.28201 c 0.92469,-0.83611 0.73335,-2.54907 -0.34946,-3.12857 -1.18779,-0.63569 -2.69625,0.13853 -2.91193,1.49457 -0.0973,0.61199 -0.0134,0.88338 0.4399,1.42209 0.81152,0.96443 1.89891,1.0461 2.82149,0.21191 z m 4.38188,-3.15514 c 0.11678,-0.18664 0.14891,-0.59203 0.0714,-0.90086 -0.15861,-0.63195 -1.04456,-0.98065 -1.6033,-0.63104 -0.43113,0.26975 -0.55762,1.26737 -0.2133,1.68225 0.3337,0.40208 1.46029,0.30503 1.74521,-0.15035 z"
       id="path379" /></g></svg>
