<?xml version="1.0" encoding="UTF-8" standalone="no"?>
<!-- Created with Inkscape (http://www.inkscape.org/) -->

<svg
   width="50.999878mm"
   height="50.952mm"
   viewBox="0 0 50.999878 50.952"
   version="1.1"
   id="svg5"
   xml:space="preserve"
   xmlns="http://www.w3.org/2000/svg"
   xmlns:svg="http://www.w3.org/2000/svg"><defs
     id="defs2" /><g
     id="layer1"
     transform="translate(-41.111686,-140.66193)"><path
       style="fill:#000000;stroke-width:0.21273"
       d="m 62.559018,191.39607 c -8.17922,-1.45361 -15.14484,-6.56162 -18.72112,-13.72853 -3.27659,-6.56635 -3.61516,-14.17017 -0.93155,-20.92162 3.3479,-8.42268 10.69695,-14.26355 19.8782,-15.79876 1.63565,-0.2735 2.86455,-0.33612 4.86643,-0.24795 15.42231,0.67919 26.77637,14.78495 24.05696,29.88726 -1.83971,10.21693 -9.43788,18.17538 -19.57055,20.49856 -2.36768,0.54285 -7.36155,0.70502 -9.57837,0.31104 z m 1.78428,-18.42143 c 0.66826,-4.45762 1.19744,-6.52597 1.6381,-6.4027 0.38989,0.10906 0.86265,0.10906 1.24071,0 0.3745,-0.10805 0.90813,1.87494 1.49399,5.55178 0.64027,4.01826 0.86699,7.11132 0.86779,11.83866 l 6.4e-4,4.28674 1.75503,-0.38739 c 2.93327,-0.64747 2.78933,-0.52387 2.74087,-2.35371 -0.15419,-5.82195 -1.99679,-13.28781 -4.52303,-18.32644 l -0.82467,-1.64481 0.619,-0.69277 0.619,-0.69278 0.46322,0.41921 c 0.84007,0.76025 3.34602,4.22345 4.41028,6.09496 1.82329,3.20626 3.38061,7.66938 4.31285,12.36023 0.2912,1.46522 0.34823,1.45324 2.45231,-0.51502 1.09778,-1.02692 1.36102,-1.39159 1.26128,-1.74727 -1.18941,-4.24184 -2.60372,-7.38109 -4.81555,-10.68882 -1.70866,-2.55525 -4.70598,-5.7287 -6.5838,-6.97068 -1.19087,-0.78763 -1.19675,-0.79677 -1.01555,-1.57671 0.10025,-0.43146 0.18455,-0.85627 0.18734,-0.94402 0.0113,-0.35594 0.75281,-0.11434 2.1456,0.69909 4.62755,2.70264 8.61349,6.78119 12.43241,12.72127 l 1.27541,1.98383 0.57998,-1.23279 c 0.31899,-0.67803 0.69234,-1.73487 0.82967,-2.34852 0.24142,-1.07878 0.22942,-1.14246 -0.36217,-1.9222 -1.05365,-1.3889 -4.1697,-4.52325 -5.83376,-5.86812 -2.23997,-1.81031 -5.05367,-3.61142 -7.60104,-4.86558 -2.33963,-1.15189 -2.32253,-1.12349 -1.3563,-2.25157 0.52839,-0.61692 0.68931,-0.60681 2.92999,0.18405 3.67426,1.29686 8.52875,4.05098 11.23924,6.37644 2.09315,1.7958 1.89001,1.83148 1.73052,-0.30399 -0.0772,-1.03423 -0.23408,-2.05538 -0.34852,-2.26921 -0.28513,-0.53276 -2.68889,-2.09315 -4.99841,-3.2447 -2.29704,-1.14532 -4.45382,-1.94667 -6.97524,-2.59167 -1.02835,-0.26306 -1.87131,-0.5649 -1.87326,-0.67076 -0.002,-0.10586 0.0999,-0.60322 0.2263,-1.10523 0.22869,-0.90821 0.23379,-0.91209 1.02233,-0.77747 2.99986,0.51213 5.40927,1.09631 7.75941,1.88134 1.49178,0.4983 2.71232,0.83896 2.71232,0.75702 0,-0.50148 -2.44949,-3.76794 -3.90853,-5.21213 -2.40279,-2.37833 -4.81056,-3.94362 -7.9999,-5.20074 -1.10952,-0.43733 -5.30861,-1.36318 -5.46649,-1.20529 -0.0504,0.0504 0.24715,0.46126 0.66112,0.91313 1.20797,1.31858 2.04035,3.23322 2.18297,5.02131 0.15783,1.9788 0.32185,2.28919 1.2097,2.28919 0.67917,0 1.19138,-0.36597 1.48869,-1.06365 0.0748,-0.17551 0.09,0.33644 0.0338,1.13766 -0.1306,1.86229 -0.74916,3.19722 -2.42975,5.2437 -1.40993,1.71691 -2.15187,3.33711 -2.15187,4.69916 0,1.08753 -0.39176,1.83661 -1.46997,2.81072 -1.47546,1.33298 -2.29115,1.23597 -3.94182,-0.46881 -0.75491,-0.77966 -0.85357,-1.01041 -0.99402,-2.32489 -0.19382,-1.81392 -0.70647,-2.9178 -2.23938,-4.822 -1.59197,-1.97754 -2.23602,-3.40544 -2.33748,-5.18229 -0.0444,-0.77679 -0.02,-1.26876 0.0541,-1.09325 0.29409,0.69619 0.80797,1.06365 1.48751,1.06365 0.89298,0 1.06086,-0.32147 1.19524,-2.28875 0.12264,-1.79538 0.95989,-3.71153 2.17732,-4.98307 0.41261,-0.43094 0.75019,-0.83892 0.75019,-0.90661 0,-0.0677 -0.40684,-0.0639 -0.9041,0.008 -6.56397,0.95474 -12.80188,5.06646 -15.97315,10.52873 -0.31165,0.53679 -0.56663,1.02296 -0.56663,1.08039 0,0.0574 1.22054,-0.3033 2.71231,-0.8016 2.35014,-0.78503 4.75955,-1.36921 7.75941,-1.88134 l 0.7925,-0.13529 0.25662,1.01912 c 0.14114,0.56052 0.21529,1.06487 0.16479,1.12078 -0.0505,0.0559 -0.90552,0.30989 -1.90004,0.5644 -0.99451,0.2545 -2.52617,0.7224 -3.40368,1.03977 -3.23445,1.16981 -8.01084,3.85124 -8.50505,4.77466 -0.13116,0.24508 -0.29557,1.28045 -0.36535,2.30082 -0.14406,2.10658 -0.34845,2.07391 1.74393,0.27877 2.7105,-2.32546 7.56498,-5.07958 11.23925,-6.37644 2.24067,-0.79086 2.4016,-0.80097 2.92999,-0.18405 0.96645,1.12835 0.9835,1.10015 -1.3563,2.24426 -2.50212,1.22348 -5.30107,3.0189 -7.61249,4.88312 -1.63731,1.32053 -5.28004,4.98884 -6.10619,6.14905 l -0.45634,0.64088 0.71445,2.07856 c 0.39294,1.14321 0.80335,2.16747 0.91202,2.27613 0.12161,0.12161 0.5102,-0.31654 1.01071,-1.1396 3.49999,-5.75561 8.18514,-10.61948 12.85825,-13.34872 1.68756,-0.98559 2.04067,-1.04605 2.21917,-0.38 0.30459,1.13658 0.14735,1.52402 -0.88415,2.17854 -1.55354,0.98577 -3.97738,3.40288 -5.68333,5.66754 -2.46103,3.26705 -4.21113,6.74882 -5.32803,10.59996 l -0.52201,1.7999 0.90436,0.92992 c 1.05345,1.08322 2.48297,2.25907 2.60188,2.14016 0.0453,-0.0453 0.28541,-1.08595 0.53351,-2.31249 0.85321,-4.21814 2.66532,-8.95584 4.67549,-12.22394 1.04962,-1.70645 3.13342,-4.48529 3.8319,-5.10999 l 0.4757,-0.42546 0.59221,0.70885 0.5922,0.70886 -1.12283,2.37573 c -2.4408,5.16439 -3.93365,11.39059 -4.18579,17.45758 l -0.0698,1.67984 0.82987,0.28791 c 0.45642,0.15834 1.46157,0.41575 2.23366,0.572 l 1.40381,0.2841 0.13169,-5.76189 c 0.10587,-4.632 0.24114,-6.49192 0.6898,-9.48467 z m 0.7728,-15.48869 c -0.002,-1.14724 -0.43765,-2.1305 -1.28003,-2.89154 -0.46602,-0.42103 -0.94277,-0.7655 -1.05943,-0.7655 -0.37985,0 -0.22832,1.89976 0.22192,2.78231 0.42431,0.83171 1.59694,1.76967 1.94415,1.55508 0.096,-0.0593 0.17404,-0.3655 0.17339,-0.68035 z m 5.05353,-0.9137 c 0.48434,-0.92985 0.66501,-2.74334 0.27332,-2.74334 -0.39542,0 -1.77531,1.38253 -2.06003,2.06396 -0.30204,0.72288 -0.38619,2.02096 -0.14654,2.2606 0.2826,0.28261 1.46703,-0.68614 1.93325,-1.58122 z m -2.92271,-3.22198 c 0.23185,-0.38026 0.4219,-0.8698 0.42233,-1.08787 8.6e-4,-0.42657 -0.84082,-2.04991 -1.06285,-2.04991 -0.22203,0 -1.06371,1.62334 -1.06286,2.04991 9.9e-4,0.49534 0.76795,1.77924 1.06286,1.77924 0.12044,0 0.40867,-0.31112 0.64052,-0.69137 z m 0.84859,-7.07329 v -2.23367 h -1.48911 -1.48911 l -0.0173,1.64866 c -0.01,0.90677 -0.0366,1.91192 -0.0602,2.23367 l -0.0429,0.58501 h 1.54932 1.54932 v -2.23367 z"
       id="path331" /></g></svg>
