<?xml version="1.0" encoding="UTF-8" standalone="no"?>
<!-- Created with Inkscape (http://www.inkscape.org/) -->

<svg
   width="51.061394mm"
   height="51.021786mm"
   viewBox="0 0 51.061394 51.021786"
   version="1.1"
   id="svg5"
   xml:space="preserve"
   xmlns="http://www.w3.org/2000/svg"
   xmlns:svg="http://www.w3.org/2000/svg"><defs
     id="defs2" /><g
     id="layer1"
     transform="translate(-14.352861,-176.76781)"><path
       style="fill:#000000;stroke-width:0.21273"
       d="m 35.716779,227.46875 c -12.304398,-2.06842 -21.361314,-12.79499 -21.363918,-25.30236 -0.0019,-9.35956 5.556238,-18.38996 13.902106,-22.58677 7.316222,-3.67904 15.555563,-3.75062 22.785253,-0.19795 14.08216,6.91997 18.68021,24.21963 9.91298,37.29649 -1.39049,2.07399 -4.26174,4.98313 -6.42962,6.51446 -5.24348,3.70385 -12.45591,5.34375 -18.806801,4.27613 z m 9.692601,-3.98677 c 2.61534,-0.68267 4.55278,-1.53399 4.39959,-1.9332 -0.29375,-0.76548 -5.98899,-8.26234 -6.3907,-8.41232 -0.25041,-0.0935 -1.46044,-0.3396 -2.68896,-0.54692 l -2.23367,-0.37695 -1.54348,-1.5089 -1.54348,-1.50891 2.71043,-2.71645 c 1.49073,-1.49405 2.80754,-2.71418 2.92623,-2.7114 0.11869,0.003 0.64317,0.63206 1.16552,1.39839 1.36857,2.00782 1.50435,1.9218 0.21468,-0.13602 l -1.0997,-1.75472 1.90879,-1.9088 1.9088,-1.90879 -1.14809,-2.43401 c -0.63144,-1.3387 -1.09218,-2.52446 -1.02385,-2.63502 0.0683,-0.11056 0.68522,-0.58198 1.37088,-1.0476 l 1.24664,-0.84657 2.59366,5.04248 2.59366,5.04249 -0.14632,2.25759 -0.14632,2.25759 3.75849,3.59904 c 2.06717,1.97947 3.84063,3.62944 3.94103,3.66659 0.29564,0.1094 2.48885,-4.60479 2.97018,-6.38427 0.96227,-3.55743 0.9146,-8.21486 -0.12065,-11.78728 -0.29668,-1.02378 -1.01233,-2.77786 -1.59033,-3.89797 -1.12923,-2.18831 -3.33948,-5.22751 -3.80171,-5.22751 -0.15789,0 -0.98996,1.5291 -1.88503,3.46415 l -1.60236,3.46415 -0.50568,-0.47506 -0.50569,-0.47507 -1.58368,1.57311 c -0.87102,0.86521 -1.62282,1.53043 -1.67067,1.47825 -0.0478,-0.0522 -0.34105,-0.60059 -0.65156,-1.21871 -0.64964,-1.29323 -0.60201,-1.43574 0.91338,-2.73285 0.97204,-0.83203 1.03854,-1.03614 0.52313,-1.60566 -0.19428,-0.21468 -0.31394,-0.42716 -0.26591,-0.47217 0.048,-0.045 1.59506,-0.80322 3.43784,-1.68489 1.84277,-0.88168 3.3505,-1.69084 3.3505,-1.79813 0,-0.23136 -1.62929,-1.61743 -2.97822,-2.53363 -2.42559,-1.64747 -5.86633,-2.97861 -8.99471,-3.47983 -2.2333,-0.35782 -6.563969,-0.15644 -8.699229,0.40451 -7.871611,2.06796 -13.757793,7.94593 -15.968736,15.94647 -0.374172,1.35398 -0.453726,2.25034 -0.465883,5.24921 -0.01341,3.30789 0.03446,3.79204 0.561139,5.6749 0.31669,1.13216 0.867166,2.70108 1.22328,3.48647 0.63717,1.40525 2.806324,4.84821 3.212751,5.09939 0.11434,0.0707 4.667544,-4.25784 10.118232,-9.6189 5.450686,-5.36106 9.991196,-9.77768 10.090026,-9.81471 0.22448,-0.0841 1.31317,2.0303 1.22394,2.37712 -0.036,0.13998 -4.37326,4.49167 -9.638334,9.67043 -5.265075,5.17876 -9.562729,9.48395 -9.550343,9.5671 0.05233,0.35123 3.015,2.39721 4.620438,3.19081 3.641139,1.79987 6.454543,2.41026 10.567259,2.29263 2.16779,-0.062 3.36732,-0.21147 4.8928,-0.60965 z m -16.256003,-20.55314 -3.5691,-3.57374 1.007851,-1.14712 c 0.554317,-0.63091 1.040054,-1.18483 1.079414,-1.23093 0.06069,-0.0711 2.34476,1.93142 4.920833,4.31421 0.380256,0.35172 0.691374,0.57773 0.691374,0.50223 0,-0.0755 -1.446834,-1.88328 -3.215187,-4.01731 l -3.215187,-3.88005 1.247431,-1.12165 c 0.686088,-0.61691 1.302891,-1.12538 1.370674,-1.12994 0.06778,-0.005 1.407984,1.4381 2.978225,3.20591 1.57024,1.76782 3.080384,3.467 3.355877,3.77597 l 0.500892,0.56175 -0.374416,-0.63819 c -0.205931,-0.35101 -1.651873,-2.4827 -3.213206,-4.7371 -1.561334,-2.2544 -2.838788,-4.1814 -2.838788,-4.28223 0,-0.19797 2.144132,-1.87446 2.641331,-2.06526 0.318463,-0.1222 0.934041,0.64898 4.671055,5.85178 1.12626,1.56802 2.04775,2.73957 2.04775,2.60345 0,-0.13613 -0.77325,-1.79173 -1.71834,-3.67912 -1.340956,-2.67798 -1.656312,-3.47358 -1.435928,-3.62269 0.155323,-0.10509 0.813728,-0.46603 1.463118,-0.8021 l 1.18072,-0.61104 2.2078,4.5685 2.20781,4.5685 -4.23944,4.25571 c -2.331696,2.34063 -4.676848,4.62661 -5.211453,5.07995 l -0.972009,0.82425 z"
       id="path410" /></g></svg>
