<?xml version="1.0" encoding="UTF-8" standalone="no"?>
<!-- Created with Inkscape (http://www.inkscape.org/) -->

<svg
   width="187.89609mm"
   height="176.05528mm"
   viewBox="0 0 187.89609 176.05528"
   version="1.1"
   id="svg5"
   xml:space="preserve"
   xmlns="http://www.w3.org/2000/svg"
   xmlns:svg="http://www.w3.org/2000/svg"><defs
     id="defs2" /><g
     id="layer1"
     transform="translate(-5.548556,-86.362861)"><path
       style="fill:#000000;stroke-width:0.264583"
       d="m 94.738494,262.2687 c -16.63452,-1.14441 -31.552271,-6.53887 -44.692951,-16.16158 l -2.61616,-1.91577 -7.34758,2.51831 c -4.04117,1.38507 -7.42713,2.42584 -7.52437,2.31284 -0.0972,-0.11302 -6.11011,-10.50438 -13.36195,-23.09194 -7.25184,-12.58755 -13.3456904,-23.13773 -13.5418904,-23.44484 -0.33716,-0.52774 -0.0987,-0.78184 4.34564,-4.6302 2.5863104,-2.23951 5.2453104,-4.57289 5.9088904,-5.18531 l 1.20651,-1.11347 -0.37772,-2.85528 c -0.48403,-3.65895 -0.53958,-14.87231 -0.0915,-18.46569 1.78162,-14.2871 6.0784,-26.11697 13.55017,-37.30625 8.88243,-13.3018 21.07303,-23.53251 35.96275,-30.181 l 3.04281,-1.35866 1.46094,-7.513499 1.46095,-7.5135 h 27.377951 27.377936 l 1.45964,7.50681 1.45964,7.506809 3.5772,1.63122 c 5.03518,2.29608 7.77305,3.80691 12.03078,6.63893 5.01176,3.33356 8.85531,6.47006 12.96636,10.58112 13.48315,13.48315 21.64072,30.49614 23.97839,50.00802 0.46182,3.85472 0.40866,14.69994 -0.0906,18.49262 l -0.37944,2.88219 5.91296,5.1571 c 5.60123,4.88522 5.89415,5.18662 5.55594,5.71677 -0.19637,0.30781 -6.29129,10.85856 -13.54427,23.44611 -7.25299,12.58756 -13.26426,22.97708 -13.3584,23.08784 -0.0941,0.11076 -3.4818,-0.93263 -7.52815,-2.31864 l -7.357,-2.52002 -2.28412,1.69915 c -7.64566,5.68756 -16.57462,10.18514 -25.69975,12.94515 -9.14681,2.76657 -19.94638,4.05649 -28.839576,3.44466 z m 11.377076,-5.12724 c 6.81097,-0.61045 13.80892,-2.13453 19.98447,-4.3524 7.3123,-2.62612 16.42858,-7.75779 22.52252,-12.67822 l 2.15803,-1.74246 6.95057,2.38635 c 3.82281,1.31249 7.03496,2.29421 7.13811,2.18161 0.10315,-0.1126 5.26596,-9.00808 11.47291,-19.76773 l 11.28536,-19.563 -0.60547,-0.57026 c -0.333,-0.31364 -2.8489,-2.51314 -5.59088,-4.88777 -4.79175,-4.14978 -4.97916,-4.34882 -4.82421,-5.12356 1.08011,-5.40054 1.4541,-17.14979 0.72959,-22.92054 -0.79999,-6.37193 -2.59774,-13.69028 -4.69236,-19.10177 -2.6378,-6.81484 -7.60672,-15.41387 -12.19905,-21.11123 -8.24586,-10.23003 -19.97032,-18.87019 -31.9723,-23.56151 -1.60073,-0.62569 -3.00174,-1.21483 -3.11337,-1.30919 -0.11162,-0.0944 -0.82793,-3.37828 -1.59179,-7.297579 l -1.38884,-7.12601 H 99.500994 76.623122 l -1.394926,7.13209 c -0.767212,3.922649 -1.483518,7.207379 -1.591797,7.299409 -0.108278,0.092 -1.208899,0.55502 -2.445826,1.02888 -1.23693,0.47385 -4.0349,1.73179 -6.21771,2.7954 -21.70158,10.57451 -37.48744,31.00889 -42.19849,54.62487 -1.20666,6.04888 -1.45898,8.82467 -1.44412,15.88706 0.0125,5.95901 0.32441,9.95849 1.06548,13.6638 0.15596,0.77985 -0.027,0.97384 -4.9565,5.2543 -2.81515,2.4445 -5.33156,4.64312 -5.59203,4.88581 -0.45071,0.41997 0.0711,1.38539 10.81196,20.00253 6.20704,10.7587 11.37431,19.65768 11.48282,19.77551 0.1085,0.11783 3.32044,-0.86275 7.13762,-2.17908 l 6.94034,-2.39333 2.82021,2.21349 c 12.00677,9.42372 26.3024,15.14148 41.317091,16.52543 3.60612,0.33239 10.218426,0.34638 13.758326,0.0291 z M 93.944744,233.83151 c -15.232575,-1.56339 -29.451291,-9.63448 -38.522291,-21.86673 -0.83264,-1.12283 -1.58867,-2.12924 -1.68005,-2.23648 -0.0914,-0.10723 -1.81471,0.7532 -3.82964,1.91207 -2.01492,1.15887 -3.75785,2.04872 -3.87318,1.97744 -0.11533,-0.0713 -0.91735,-1.36291 -1.78227,-2.8703 l -1.57259,-2.7407 3.76875,-2.16729 3.76875,-2.16728 -1.13138,-2.57074 c -9.87014,-22.42709 -3.42037,-49.02884 15.6735,-64.64456 8.063231,-6.59442 19.400999,-11.29004 29.051391,-12.03183 l 2.23323,-0.17166 0.0724,-4.39321 0.0724,-4.39322 h 3.3073 3.307286 l 0.0724,4.39428 0.0724,4.39428 2.3106,0.17443 c 5.50735,0.41575 12.62958,2.46517 18.44674,5.30804 17.14949,8.38104 28.68624,25.10502 30.55688,44.29607 0.87647,8.99186 -0.69196,18.74164 -4.35326,27.06091 l -1.12853,2.56426 3.77413,2.15941 3.77413,2.15942 -1.58081,2.75505 c -0.86945,1.51528 -1.67211,2.81147 -1.7837,2.88043 -0.11158,0.069 -1.8487,-0.82669 -3.86027,-1.99035 -2.01157,-1.16365 -3.73797,-2.02219 -3.83645,-1.90785 -0.0985,0.11433 -0.84903,1.11155 -1.66788,2.21605 -11.45067,15.44507 -30.53804,23.86263 -49.659856,21.90006 z M 107.1739,223.40277 c 9.17761,-1.61388 17.4737,-5.93706 24.08024,-12.54845 2.13905,-2.14063 5.28007,-5.91766 5.28488,-6.355 0.002,-0.15069 -16.32798,-9.62045 -16.77221,-9.72642 -0.15938,-0.038 -1.09979,1.35785 -2.08981,3.10194 -0.99001,1.74409 -1.88298,3.22208 -1.98437,3.28443 -0.17646,0.1085 -13.37221,-20.20599 -13.22182,-20.35463 0.14719,-0.14549 23.89171,1.02193 24.07748,1.18379 0.10566,0.0921 -0.6464,1.63471 -1.67123,3.42813 -1.02484,1.79343 -1.82067,3.30344 -1.76852,3.35559 0.28316,0.28316 16.63442,9.64175 16.846,9.64175 0.3128,0 2.16815,-4.73356 2.90374,-7.40834 5.57764,-20.28153 -3.81593,-41.89336 -22.46161,-51.6775 -4.89771,-2.57003 -10.8161,-4.41462 -15.53696,-4.84241 l -1.91914,-0.17391 v 9.82608 9.82608 h 3.83646 c 2.11005,0 3.83646,0.0759 3.83646,0.16857 0,0.27765 -10.969106,21.5164 -11.112496,21.5164 -0.1434,0 -11.112505,-21.23875 -11.112505,-21.5164 0,-0.0927 1.726405,-0.16857 3.836455,-0.16857 h 3.83646 v -9.82758 -9.82758 l -1.88503,0.1752 c -10.167239,0.94494 -21.26256,6.75909 -28.338241,14.84975 -10.05895,11.50186 -13.69417,27.12798 -9.69444,41.67187 0.7418,2.69736 2.59201,7.40834 2.90957,7.40834 0.24485,0 16.258563,-9.13158 16.723978,-9.53661 0.121576,-0.10579 -0.554373,-1.54545 -1.502108,-3.19923 -0.947732,-1.65378 -1.761578,-3.1814 -1.808544,-3.39472 -0.07261,-0.32981 1.716183,-0.47458 11.95315,-0.96738 6.621195,-0.31874 12.071335,-0.54797 12.111425,-0.5094 0.15147,0.14572 -13.045938,20.46085 -13.221817,20.35271 -0.101391,-0.0624 -0.99436,-1.53889 -1.984375,-3.28121 -1.310744,-2.30677 -1.907903,-3.12802 -2.196899,-3.02132 -0.348655,0.12873 -16.39247,9.31929 -16.62811,9.52527 -0.17311,0.15133 1.48604,2.36875 3.45327,4.61522 7.051913,8.0529 17.392142,13.41985 28.520671,14.80325 2.78058,0.34566 9.706016,0.12878 12.699996,-0.39771 z"
       id="path441" /></g></svg>
