<?xml version="1.0" encoding="UTF-8" standalone="no"?>
<!-- Created with Inkscape (http://www.inkscape.org/) -->

<svg
   width="50.929844mm"
   height="50.996559mm"
   viewBox="0 0 50.929844 50.996559"
   version="1.1"
   id="svg5"
   xml:space="preserve"
   xmlns="http://www.w3.org/2000/svg"
   xmlns:svg="http://www.w3.org/2000/svg"><defs
     id="defs2" /><g
     id="layer1"
     transform="translate(-92.616943,-147.61836)"><path
       style="fill:#000000;stroke-width:0.21273"
       d="m 113.94546,198.30245 c -4.71791,-0.73462 -9.66277,-3.16856 -13.25733,-6.52549 -3.93508,-3.67493 -6.838894,-8.97931 -7.776312,-14.20494 -0.427506,-2.38312 -0.383035,-7.16459 0.08706,-9.36013 0.769525,-3.59403 1.876247,-6.23893 3.877544,-9.26676 3.644978,-5.51461 9.540298,-9.47211 16.125178,-10.82475 9.67059,-1.98648 19.95216,2.0369 25.65951,10.04108 7.39225,10.36716 6.30207,24.00225 -2.63351,32.93783 -5.83292,5.83292 -13.92658,8.47306 -22.08213,7.20316 z m 7.76374,-3.81619 c 4.44785,-0.77564 8.45439,-2.85757 11.65109,-6.05427 2.54594,-2.54593 4.29177,-5.42487 5.37759,-8.86785 0.53681,-1.70214 1.11404,-5.14085 0.94704,-5.64183 -0.0469,-0.14062 -0.44613,0.40093 -0.88725,1.20345 -2.38932,4.34683 -6.58056,8.13908 -11.19329,10.12774 -6.10654,2.63268 -12.63308,2.65909 -18.98802,0.0769 -4.61963,-1.87713 -9.353768,-6.2304 -11.618054,-10.68337 -0.25285,-0.49725 -0.513265,-0.9041 -0.578701,-0.9041 -0.06544,0 -0.05198,0.64617 0.0299,1.43593 1.301175,12.55056 12.949625,21.45414 25.259705,19.30745 z m -0.27414,-8.93401 c 1.94227,-0.51637 3.83369,-1.61017 5.47758,-3.16766 0.84927,-0.80463 1.54413,-1.58602 1.54413,-1.7364 0,-0.15039 -0.78338,-0.72529 -1.74085,-1.27756 l -1.74085,-1.00412 -0.36737,0.45368 c -0.20205,0.24952 -0.41662,0.45368 -0.47683,0.45368 -0.0602,0 -0.60424,-0.86462 -1.20897,-1.92137 l -1.09952,-1.92137 -0.84216,0.76084 c -1.04182,0.94122 -1.61741,1.16732 -2.97164,1.16732 -1.19461,0 -2.1109,-0.39084 -3.08772,-1.31707 l -0.66573,-0.63125 -1.10528,1.93145 c -0.60791,1.06229 -1.15454,1.93145 -1.21475,1.93145 -0.0602,0 -0.27477,-0.20416 -0.47682,-0.45368 l -0.36737,-0.45368 -1.74085,1.00412 c -0.95747,0.55227 -1.74086,1.0972 -1.74086,1.21097 0,0.38055 2.17415,2.51114 3.37764,3.30997 1.32439,0.87908 3.3388,1.67352 4.99605,1.97035 1.36345,0.24421 3.91364,0.0994 5.45217,-0.30967 z m -12.69578,-8.23904 c 1.43296,-0.82969 1.44546,-0.84476 1.11684,-1.3463 -0.18279,-0.27897 -0.33234,-0.55845 -0.33234,-0.62107 0,-0.0626 1.05064,-0.11385 2.33476,-0.11385 h 2.33477 l -0.20746,-0.54567 c -0.11411,-0.30012 -0.20747,-1.0219 -0.20747,-1.60396 0,-1.92415 1.26273,-3.57721 3.10994,-4.07127 0.51257,-0.13709 0.93194,-0.31936 0.93194,-0.40505 0,-0.0857 -0.47846,-0.95133 -1.06325,-1.92364 -0.58478,-0.9723 -1.06343,-1.83963 -1.06365,-1.92738 -2.2e-4,-0.0877 0.23892,-0.15955 0.53142,-0.15955 h 0.53183 v -2.15621 -2.15622 l -0.94702,0.1298 c -3.69992,0.50713 -7.65958,3.47065 -9.34247,6.99216 -0.77042,1.61211 -1.41068,4.19903 -1.41068,5.69969 0,1.07911 0.54414,3.76481 0.96858,4.78066 0.36086,0.86366 0.16216,0.90554 2.71426,-0.57214 z m 21.64981,-0.37938 c 0.70185,-2.03566 0.70343,-5.47426 0.004,-7.61697 -0.9494,-2.90641 -2.89545,-5.4506 -5.42917,-7.0979 -1.26089,-0.81976 -4.15351,-1.87809 -5.13319,-1.87809 -0.51792,0 -0.52085,0.012 -0.52085,2.1273 v 2.1273 h 0.53183 c 0.2925,0 0.53182,0.072 0.53182,0.16004 0,0.088 -0.47864,0.97329 -1.06365,1.96727 -0.58501,0.99397 -1.06365,1.85939 -1.06365,1.92314 0,0.0638 0.42539,0.22969 0.9453,0.36875 1.11416,0.29799 2.27389,1.25062 2.75386,2.26207 0.38242,0.80589 0.45259,2.57491 0.13525,3.40958 l -0.20746,0.54567 h 2.33475 c 1.28413,0 2.33477,0.0744 2.33477,0.1654 0,0.091 -0.14544,0.37303 -0.32319,0.62682 -0.30979,0.44229 -0.28113,0.48543 0.69137,1.04021 0.55801,0.31833 1.39582,0.79897 1.8618,1.06808 0.46597,0.26911 0.91314,0.42062 0.9937,0.33668 0.0806,-0.0839 0.36101,-0.77484 0.62321,-1.53535 z m -33.303254,-5.37144 c 2.688069,-5.14767 7.625354,-9.34185 13.183424,-11.1992 5.1556,-1.72286 10.37185,-1.72286 15.52745,0 5.48086,1.83154 10.09893,5.70272 13.16964,11.03965 l 0.79559,1.38275 -0.13826,-1.58072 c -1.13988,-13.03193 -13.66497,-22.09845 -26.44736,-19.14443 -3.9289,0.90797 -7.02208,2.57904 -9.97521,5.38902 -3.19036,3.03572 -5.296494,6.6378 -6.230596,10.65607 -0.412181,1.7731 -0.765329,4.5737 -0.576731,4.5737 0.05987,0 0.371293,-0.50258 0.692053,-1.11684 z"
       id="path125" /></g></svg>
